<svg width="1920" height="124" viewBox="0 0 1920 124" fill="none" xmlns="http://www.w3.org/2000/svg">
<path d="M69.9337 121.275H54V2.55494H148.596V121.275H132.662V5.28021H69.9337V121.275Z" fill="#000C14"/>
<path d="M162.863 62C162.863 19.4176 194.395 0.170327 228.946 0C263.664 0.170327 295.196 19.4176 295.196 62C295.196 105.434 263.664 123.83 228.946 124C194.395 123.83 162.863 105.434 162.863 62ZM228.946 2.72527C203.955 2.72527 179.635 17.7143 179.635 62C179.635 106.456 203.955 121.445 228.946 121.445C254.104 121.445 278.424 106.456 278.424 62C278.424 17.7143 254.104 2.72527 228.946 2.72527Z" fill="#000C14"/>
<path d="M296.17 121.275L336.424 2.55494H353.699L399.152 121.275H382.044L338.101 6.64285L299.189 121.275H296.17Z" fill="#000C14"/>
<path d="M412.541 121.275V2.55494H496.738V5.28021H428.475V58.0824H481.643V60.8077H428.475V118.379H496.738V121.275H412.541Z" fill="#000C14"/>
<path d="M548.278 5.28021H499.973V2.55494H612.348V5.28021H564.211V121.275H548.278V5.28021Z" fill="#000C14"/>
<path d="M620.721 121.275V2.55494H704.918V5.28021H636.655V58.0824H689.823V60.8077H636.655V118.379H704.918V121.275H620.721Z" fill="#000C14"/>
<path d="M713.185 121.275L753.439 2.55494H770.714L816.167 121.275H799.059L755.116 6.64285L716.204 121.275H713.185Z" fill="#000C14"/>
<path d="M845.49 121.275H829.556V2.55494H845.49V118.379C859.914 118.379 904.864 112.758 908.218 46.6703V2.55494H924.152V121.275H908.218V67.9615C904.193 85.6758 896.31 99.1319 884.234 108.33C869.139 119.742 852.366 121.275 845.49 121.275Z" fill="#000C14"/>
<path d="M1008.09 2.55494H1024.02V58.2528H1088.43V2.55494H1104.36V121.275H1088.43V60.978H1024.02V121.275H1008.09V2.55494Z" fill="#000C14"/>
<path d="M1117.75 121.275L1158.01 2.55494H1175.28L1220.73 121.275H1203.63L1185.01 72.7308H1137.21L1120.77 121.275H1117.75ZM1159.68 6.3022L1138.21 69.8352H1184L1159.68 6.3022Z" fill="#000C14"/>
<path d="M1301.28 121.275V2.55494H1317.38L1359.48 58.7637L1401.58 2.55494H1417.68V121.275H1401.91V6.98352L1359.48 63.533L1317.21 6.98352V121.275H1301.28Z" fill="#000C14"/>
<path d="M1431.09 121.275L1471.34 2.55494H1488.62L1534.07 121.275H1516.96L1498.34 72.7308H1450.54L1434.11 121.275H1431.09ZM1473.02 6.3022L1451.55 69.8352H1497.34L1473.02 6.3022Z" fill="#000C14"/>
<path d="M1563.39 121.275H1547.46V2.55494H1563.39V42.0714C1566.75 21.8022 1573.29 0 1597.61 0C1621.76 0 1642.89 10.5604 1642.89 39.0055C1642.89 74.0934 1619.07 80.2253 1591.57 80.2253H1563.39V121.275ZM1569.43 27.4231C1561.88 53.6538 1563.39 77.6703 1563.39 77.6703H1591.57C1607.84 77.6703 1626.45 74.9451 1626.45 39.0055C1626.45 10.7308 1615.89 2.72527 1597.61 2.72527C1587.38 2.72527 1575.97 4.25824 1569.43 27.4231Z" fill="#000C14"/>
<path d="M1714.43 124C1674.85 124 1653.04 97.4286 1653.04 62C1653.04 26.0604 1674.85 0 1714.43 0C1745.96 0 1761.56 16.522 1763.74 29.978L1760.89 30.3187C1757.54 9.70879 1731.54 2.72527 1714.43 2.72527C1685.92 2.72527 1670.15 25.8901 1670.15 62C1670.15 100.154 1689.27 120.764 1714.43 120.764C1726.51 120.764 1749.99 120.423 1769.28 101.346L1771.29 103.22C1751.16 123.319 1727.01 124 1714.43 124Z" fill="#000C14"/>
<path d="M1800.41 39.3462L1782.97 36.9615C1782.97 10.7308 1799.07 0 1824.4 0C1849.56 0 1867 9.1978 1867 38.4945C1867 71.1978 1830.6 68.1319 1824.73 78.3517C1823.56 80.3956 1823.06 83.6319 1822.72 88.4011H1820.04C1820.21 82.7802 1820.88 79.3736 1822.39 76.8187C1828.59 66.4286 1849.72 71.7088 1849.72 38.4945C1849.72 13.456 1842.01 2.72527 1824.4 2.72527C1801.08 2.72527 1800.41 20.6099 1800.41 39.3462ZM1810.31 112.929C1810.31 106.797 1815.17 101.687 1821.21 101.687C1827.25 101.687 1832.28 106.797 1832.28 112.929C1832.28 119.06 1827.25 124 1821.21 124C1815.17 124 1810.31 119.06 1810.31 112.929Z" fill="#000C14"/>
</svg>
