<svg width="255" height="102" viewBox="0 0 255 102" fill="none" xmlns="http://www.w3.org/2000/svg">
<path d="M29.4508 50.4327C24.6803 49.8372 22.2876 46.272 22.2665 41.6268C22.25 38.1836 22.2459 34.7396 22.2541 31.2948C22.2541 31.2541 22.2744 31.2338 22.3149 31.2338H29.5661C29.5993 31.2338 29.6312 31.2469 29.6547 31.2703C29.6782 31.2936 29.6914 31.3253 29.6914 31.3584C29.6905 34.2575 29.6889 37.1642 29.6864 40.0783C29.6839 41.5632 30.0806 43.1054 31.8163 43.3296C33.7292 43.575 34.3726 42.1512 34.5016 40.4745C34.6164 38.9829 34.6181 37.4906 34.5065 35.9974C34.3379 33.7377 33.2556 31.9289 31.9117 30.1837C30.2001 27.9613 28.4801 25.7452 26.7519 23.5353C24.3505 20.4621 22.8827 17.1685 22.7054 13.2395C22.486 8.3675 22.3694 2.49896 27.9322 0.601738C28.8454 0.29031 29.8443 0.10636 30.9286 0.0498878C32.7651 -0.0464473 34.3354 -0.00326249 35.6396 0.179442C40.1287 0.809772 41.7714 3.939 41.7987 8.18937C41.8169 11.0171 41.8177 13.8457 41.8012 16.6752C41.8012 16.7158 41.7809 16.7362 41.7404 16.7362L34.7111 16.7586C34.6779 16.7586 34.646 16.7454 34.6225 16.7218C34.5991 16.6982 34.5859 16.6662 34.5859 16.6328C34.5867 14.3822 34.5888 12.1175 34.5921 9.83869C34.5945 8.53069 34.4681 6.92248 32.8217 6.72566C30.858 6.49146 30.3323 7.80693 30.2889 9.51979C30.2641 10.4773 30.2873 11.4344 30.3583 12.3912C30.517 14.5126 31.4952 16.2068 32.7486 17.8561C34.6123 20.3093 36.4835 22.7567 38.3621 25.1983C40.4263 27.8828 41.9623 30.5748 42.3665 34.003C42.6157 36.1182 42.607 38.4564 42.4694 40.6775C42.1582 45.7102 39.7481 49.9481 34.3057 50.4676C32.5766 50.6328 30.9584 50.6212 29.4508 50.4327Z" fill="white"/>
<path d="M20.0541 44.4351C20.0946 46.2779 20.1012 48.0888 20.0739 49.8676C20.0714 49.9847 20.0123 50.0433 19.8966 50.0433H12.7074C12.6745 50.0433 12.643 50.0302 12.6197 50.0068C12.5965 49.9834 12.5834 49.9518 12.5834 49.9187V28.3991C12.5834 28.366 12.5703 28.3343 12.5471 28.311C12.5238 28.2876 12.4923 28.2745 12.4594 28.2745H7.59343C7.56022 28.2745 7.52837 28.2876 7.50489 28.311C7.48141 28.3343 7.46821 28.366 7.46821 28.3991L7.47069 49.8876C7.47069 49.9914 7.41904 50.0433 7.31572 50.0433L0.0768644 50.0408C0.0256217 50.0408 0 50.0151 0 49.9636V0.557403C0 0.515879 0.0206624 0.495117 0.0619872 0.495117H7.42234C7.43451 0.495117 7.44617 0.499973 7.45478 0.508617C7.46338 0.517261 7.46821 0.528985 7.46821 0.541209L7.47441 20.2272C7.47441 20.2411 7.47717 20.2549 7.48253 20.2677C7.48789 20.2806 7.49574 20.2922 7.50564 20.3021C7.51554 20.3119 7.52729 20.3197 7.54023 20.325C7.55316 20.3303 7.56703 20.3331 7.58103 20.3331H12.4594C12.4923 20.3331 12.5238 20.3199 12.5471 20.2966C12.5703 20.2732 12.5834 20.2415 12.5834 20.2085V0.573597C12.5834 0.521277 12.609 0.495117 12.6603 0.495117H19.9884C20.0137 0.495117 20.038 0.505223 20.0559 0.523211C20.0738 0.5412 20.0838 0.565597 20.0838 0.591037C20.0838 15.1434 20.0838 29.7071 20.0838 44.2819C20.0838 44.3035 20.0797 44.3234 20.0714 44.3417C20.059 44.3716 20.0533 44.4027 20.0541 44.4351Z" fill="white"/>
<path d="M52.2327 20.6445L59.5683 20.6482C59.5863 20.6482 59.6037 20.6555 59.6165 20.6683C59.6293 20.6812 59.6364 20.6986 59.6364 20.7168L59.6327 28.1437C59.6327 28.1619 59.6255 28.1793 59.6128 28.1921C59.6 28.205 59.5826 28.2122 59.5645 28.2122H52.2327C52.2146 28.2122 52.1973 28.2194 52.1845 28.2323C52.1717 28.2451 52.1645 28.2625 52.1645 28.2807L52.1633 42.4071C52.1633 42.4253 52.1705 42.4427 52.1832 42.4555C52.196 42.4684 52.2134 42.4756 52.2315 42.4756H62.0143C62.0324 42.4756 62.0497 42.4828 62.0625 42.4957C62.0753 42.5085 62.0825 42.5259 62.0825 42.5441V49.9748C62.0825 49.9929 62.0753 50.0104 62.0625 50.0232C62.0497 50.0361 62.0324 50.0433 62.0143 50.0433H44.7322C44.7142 50.0433 44.6968 50.0361 44.684 50.0232C44.6712 50.0104 44.6641 49.9929 44.6641 49.9748V0.563632C44.6641 0.545461 44.6712 0.528034 44.684 0.515185C44.6968 0.502336 44.7142 0.495117 44.7322 0.495117H61.6423C61.6604 0.495117 61.6778 0.502336 61.6906 0.515185C61.7033 0.528034 61.7105 0.545461 61.7105 0.563632V7.62059C61.7105 7.63876 61.7033 7.65618 61.6906 7.66903C61.6778 7.68188 61.6604 7.6891 61.6423 7.6891H52.2327C52.2146 7.6891 52.1973 7.69632 52.1845 7.70917C52.1717 7.72202 52.1645 7.73944 52.1645 7.75762V20.576C52.1645 20.585 52.1663 20.5939 52.1697 20.6022C52.1731 20.6105 52.1781 20.6181 52.1845 20.6244C52.1908 20.6308 52.1983 20.6358 52.2066 20.6393C52.2149 20.6427 52.2237 20.6445 52.2327 20.6445Z" fill="white"/>
<path d="M76.8473 40.8225L75.8729 49.9523C75.8701 49.9775 75.8582 50.0006 75.8394 50.0174C75.8207 50.0342 75.7964 50.0434 75.7712 50.0433H69.2626C69.2481 50.0434 69.2338 50.0404 69.2206 50.0345C69.2074 50.0286 69.1955 50.02 69.1859 50.0091C69.1763 49.9983 69.1691 49.9855 69.1648 49.9716C69.1605 49.9577 69.1592 49.9431 69.1609 49.9287L75.1712 0.584811C75.1742 0.559933 75.1863 0.537046 75.205 0.520507C75.2238 0.503969 75.2479 0.494933 75.2728 0.49512H83.992C84.0165 0.495198 84.0402 0.504196 84.0586 0.520452C84.0771 0.536709 84.0891 0.559126 84.0924 0.583565L90.4944 49.9274C90.4964 49.9419 90.4952 49.9565 90.4911 49.9704C90.4869 49.9844 90.4798 49.9973 90.4703 50.0082C90.4608 50.0192 90.4491 50.028 90.4359 50.034C90.4228 50.0401 90.4085 50.0432 90.394 50.0433H83.3584C83.3333 50.0434 83.309 50.0342 83.2902 50.0174C83.2715 50.0006 83.2595 49.9775 83.2568 49.9523L82.2824 40.82C82.2796 40.7949 82.2677 40.7718 82.2489 40.755C82.2301 40.7382 82.2058 40.729 82.1807 40.7291L76.949 40.7316C76.9238 40.7314 76.8995 40.7407 76.8808 40.7574C76.862 40.7742 76.8501 40.7974 76.8473 40.8225ZM77.6011 33.2449C77.6006 33.2504 77.6012 33.256 77.603 33.2613C77.6047 33.2666 77.6076 33.2714 77.6113 33.2755C77.615 33.2796 77.6196 33.2829 77.6247 33.2851C77.6297 33.2874 77.6352 33.2885 77.6408 33.2885L81.4245 33.291C81.43 33.291 81.4355 33.2898 81.4405 33.2876C81.4456 33.2854 81.4502 33.2821 81.4539 33.278C81.4576 33.2739 81.4605 33.269 81.4622 33.2638C81.464 33.2585 81.4646 33.2529 81.4641 33.2474L79.5363 15.4474C79.5347 15.4382 79.5299 15.4298 79.5227 15.4238C79.5156 15.4178 79.5066 15.4145 79.4973 15.4145C79.488 15.4145 79.479 15.4178 79.4718 15.4238C79.4647 15.4298 79.4599 15.4382 79.4582 15.4474L77.6011 33.2449Z" fill="white"/>
<path d="M99.2582 27.9485C99.2062 27.951 99.1801 27.9784 99.1801 28.0307V49.9029C99.1801 49.9399 99.1655 49.9754 99.1395 50.0016C99.1134 50.0278 99.0781 50.0425 99.0413 50.0425L91.8037 50.0449C91.7708 50.0449 91.7393 50.0317 91.716 50.0081C91.6928 49.9845 91.6797 49.9525 91.6797 49.9191V0.617612C91.6797 0.585235 91.6925 0.554183 91.7153 0.531288C91.7381 0.508394 91.769 0.495532 91.8012 0.495532C95.9403 0.494702 100.094 0.495117 104.263 0.496778C109.568 0.49927 111.367 3.66961 111.318 8.54781C111.29 11.469 111.322 14.3902 111.286 17.3114C111.255 19.7704 110.416 22.0912 108.153 23.231C108.148 23.2338 108.143 23.238 108.14 23.2432C108.137 23.2484 108.135 23.2544 108.135 23.2604C108.135 23.2664 108.137 23.2722 108.14 23.2771C108.143 23.2821 108.148 23.2859 108.153 23.2883C110.115 24.1811 111.15 25.7278 111.26 27.9286C111.283 28.387 111.296 28.8475 111.299 29.3101C111.322 33.7116 111.331 38.1131 111.327 42.5146C111.325 44.9251 111.018 47.4564 112.06 49.7223C112.076 49.7568 112.083 49.7948 112.08 49.8326C112.077 49.8705 112.065 49.9071 112.045 49.9391C112.025 49.9711 111.996 49.9975 111.963 50.0157C111.93 50.034 111.893 50.0436 111.855 50.0437H104.754C104.699 50.0436 104.645 50.0276 104.599 49.9975C104.553 49.9675 104.517 49.9246 104.495 49.8743C104.125 49.033 103.934 48.1266 103.923 47.1549C103.863 41.609 103.844 36.0631 103.868 30.5172C103.874 28.9214 103.263 28.088 101.673 27.9734C100.859 27.9153 100.054 27.907 99.2582 27.9485ZM101.781 20.7944C103.742 20.5664 103.936 18.3466 103.892 16.8231C103.83 14.6468 103.86 12.4668 103.861 10.2893C103.861 8.78699 103.553 7.39428 101.821 7.27469C100.967 7.2149 100.123 7.20078 99.288 7.23234C99.259 7.23331 99.2316 7.24555 99.2115 7.26647C99.1914 7.28739 99.1801 7.31536 99.1801 7.34445V20.7383C99.1801 20.7568 99.1838 20.775 99.1911 20.7919C99.1984 20.8088 99.209 20.8241 99.2224 20.8367C99.2357 20.8493 99.2515 20.859 99.2688 20.8653C99.2861 20.8715 99.3044 20.8741 99.3227 20.8729C100.16 20.8156 100.98 20.8878 101.781 20.7944Z" fill="white"/>
<path d="M126.306 50.0433H119.098C119.083 50.0433 119.068 50.0403 119.054 50.0345C119.04 50.0286 119.028 50.0201 119.017 50.0094C119.006 49.9986 118.998 49.9858 118.992 49.9718C118.986 49.9577 118.983 49.9427 118.983 49.9274V7.80495C118.983 7.77423 118.971 7.74476 118.949 7.72303C118.928 7.70131 118.898 7.6891 118.868 7.6891H112.807C112.776 7.6891 112.747 7.67689 112.725 7.65517C112.704 7.63344 112.691 7.60398 112.691 7.57325V0.610968C112.691 0.595755 112.694 0.58069 112.7 0.566634C112.706 0.552578 112.714 0.539807 112.725 0.529049C112.736 0.518292 112.749 0.509758 112.763 0.503936C112.777 0.498114 112.792 0.495117 112.807 0.495117H132.598C132.613 0.495117 132.628 0.498114 132.642 0.503936C132.656 0.509758 132.669 0.518292 132.679 0.529049C132.69 0.539807 132.699 0.552578 132.704 0.566634C132.71 0.58069 132.713 0.595755 132.713 0.610968V7.57325C132.713 7.60398 132.701 7.63344 132.679 7.65517C132.658 7.67689 132.629 7.6891 132.598 7.6891H126.537C126.522 7.6891 126.507 7.6921 126.493 7.69792C126.479 7.70374 126.466 7.71228 126.455 7.72303C126.445 7.73379 126.436 7.74656 126.43 7.76062C126.425 7.77467 126.422 7.78974 126.422 7.80495V49.9274C126.422 49.9582 126.409 49.9876 126.388 50.0094C126.366 50.0311 126.337 50.0433 126.306 50.0433Z" fill="white"/>
<path d="M152.761 40.7279L147.489 40.7304C147.469 40.7305 147.45 40.738 147.435 40.7513C147.421 40.7646 147.412 40.7829 147.409 40.8026L146.431 49.971C146.429 49.9908 146.42 50.009 146.405 50.0223C146.391 50.0356 146.372 50.0431 146.352 50.0433H139.799C139.787 50.0432 139.776 50.0407 139.766 50.0359C139.755 50.0312 139.746 50.0243 139.739 50.0157C139.731 50.0071 139.726 49.997 139.722 49.9861C139.719 49.9752 139.718 49.9637 139.719 49.9524L145.733 0.566125C145.736 0.546421 145.745 0.5283 145.76 0.515209C145.775 0.502118 145.794 0.494969 145.814 0.49512H154.573C154.592 0.495272 154.611 0.502559 154.626 0.515622C154.64 0.528685 154.65 0.546633 154.652 0.566125L161.059 49.9536C161.06 49.9649 161.059 49.9764 161.056 49.9874C161.053 49.9983 161.047 50.0084 161.04 50.0169C161.032 50.0255 161.023 50.0324 161.013 50.0372C161.002 50.0419 160.991 50.0445 160.98 50.0445L153.898 50.0396C153.879 50.0394 153.86 50.0319 153.845 50.0186C153.83 50.0053 153.821 49.987 153.819 49.9673L152.841 40.8001C152.839 40.7804 152.829 40.7622 152.815 40.7488C152.8 40.7355 152.781 40.7281 152.761 40.7279ZM151.966 33.2885C151.974 33.2885 151.982 33.2868 151.99 33.2834C151.997 33.28 152.004 33.2751 152.01 33.2688C152.016 33.2626 152.02 33.2552 152.022 33.2473C152.025 33.2393 152.026 33.2308 152.025 33.2225L150.107 15.5346C150.075 15.2373 150.043 15.2377 150.012 15.5358L148.158 33.2499C148.158 33.2552 148.158 33.2605 148.16 33.2657C148.161 33.2708 148.164 33.2755 148.168 33.2795C148.171 33.2835 148.176 33.2867 148.181 33.2889C148.186 33.2911 148.191 33.2922 148.197 33.2922L151.966 33.2885Z" fill="white"/>
<path d="M169.054 21.8342C169.023 22.1248 169.008 22.3848 169.008 22.614C169.006 31.7376 169.006 40.8595 169.007 49.9798C169.007 49.9973 169 50.0141 168.988 50.0264C168.976 50.0388 168.959 50.0458 168.942 50.0458L162.43 50.0383C162.31 50.0383 162.25 49.9781 162.25 49.8577V0.557403C162.25 0.540884 162.257 0.525041 162.268 0.51336C162.28 0.501679 162.296 0.495117 162.312 0.495117H168.993C169.015 0.495117 169.029 0.505914 169.034 0.527506L175.345 26.6115C175.398 26.8315 175.425 26.8282 175.425 26.6015L175.421 0.546192C175.421 0.532646 175.426 0.519655 175.436 0.510077C175.445 0.500498 175.458 0.495117 175.472 0.495117H182.21C182.226 0.495117 182.242 0.501679 182.254 0.51336C182.265 0.525041 182.272 0.540884 182.272 0.557403V49.8826C182.272 49.9034 182.268 49.9239 182.26 49.9431C182.252 49.9623 182.24 49.9798 182.226 49.9945C182.211 50.0091 182.194 50.0208 182.175 50.0288C182.156 50.0367 182.135 50.0408 182.114 50.0408L176.259 50.0445C176.231 50.0445 176.205 50.0352 176.183 50.018C176.161 50.0009 176.145 49.9769 176.139 49.9499L169.078 21.8317C169.067 21.7868 169.059 21.7876 169.054 21.8342Z" fill="white"/>
<path d="M185.258 50.0319C185.198 50.0313 185.14 50.0067 185.098 49.9635C185.055 49.9204 185.031 49.8622 185.031 49.8015V0.620767C185.031 0.58839 185.044 0.557339 185.066 0.534444C185.089 0.51155 185.12 0.498688 185.152 0.498688C189.033 0.497027 192.929 0.494535 196.84 0.491213C201.056 0.488722 203.791 2.42954 204.637 6.59022C204.829 7.54111 204.926 8.4401 204.927 9.28718C204.93 19.801 204.923 30.3144 204.906 40.8274C204.896 46.3645 202.355 50.0132 196.537 50.0444C192.829 50.0643 189.069 50.0602 185.258 50.0319ZM197.217 10.9066C197.213 9.34573 197.021 7.35758 194.979 7.25667C194.186 7.21764 193.398 7.20934 192.617 7.23176C192.603 7.23208 192.589 7.23813 192.579 7.24861C192.568 7.25909 192.563 7.27316 192.563 7.28782V42.7296C192.563 42.7769 192.586 42.8018 192.633 42.8043C193.325 42.8425 194.017 42.8417 194.709 42.8018C197.046 42.6685 197.234 40.6691 197.235 38.8342C197.242 29.5254 197.236 20.2162 197.217 10.9066Z" fill="white"/>
<path d="M43.0533 98.0205C41.7602 96.3201 41.2916 94.1139 41.2866 92.0211C41.2784 88.6253 41.2796 85.2295 41.2904 81.8337C41.2904 81.7972 41.3081 81.7789 41.3437 81.7789L48.6309 81.7801C48.6722 81.7801 48.6929 81.8013 48.6929 81.8437C48.692 84.2861 48.6933 86.7265 48.6966 89.1647C48.6978 90.91 48.4945 93.7564 50.9938 93.871C52.6588 93.947 53.363 92.8333 53.4931 91.3086C53.6407 89.5895 53.6766 87.5005 53.4708 85.9869C53.1944 83.9651 52.1939 82.3806 50.9356 80.7387C49.2057 78.4832 47.4688 76.233 45.7249 73.9882C43.4562 71.0658 42.095 68.1022 41.7813 64.3776C41.2507 58.0867 41.6623 51.1331 49.7243 50.6087C55.9466 50.2038 60.7382 51.2241 60.8188 58.7158C60.8494 61.4929 60.8547 64.3244 60.8349 67.2103C60.8349 67.2255 60.8289 67.2401 60.8182 67.2508C60.8075 67.2616 60.793 67.2676 60.7779 67.2676H53.6531C53.6363 67.2676 53.6202 67.2609 53.6084 67.249C53.5965 67.2371 53.5898 67.2209 53.5898 67.2041C53.5898 64.8156 53.589 62.418 53.5874 60.0113C53.5861 58.4604 53.1485 57.1088 51.2901 57.2421C50.2421 57.3185 49.6293 57.8616 49.4516 58.8715C49.2173 60.1982 49.2396 61.8787 49.3772 63.1306C49.6165 65.3106 50.7372 67.0558 52.0426 68.7699C54.2436 71.66 55.7582 73.6332 56.5863 74.6896C58.4558 77.0751 60.1493 79.4183 60.9651 82.342C61.6147 84.6677 61.5936 87.1379 61.5378 89.6593C61.5081 91.0329 61.4308 92.11 61.306 92.8906C60.5845 97.4026 57.9215 100.565 53.2291 101.018C49.6822 101.359 45.4336 101.153 43.0533 98.0205Z" fill="white"/>
<path d="M88.213 95.7991C88.2118 95.7932 88.2087 95.7881 88.2042 95.7843C88.1998 95.7805 88.1941 95.7783 88.1881 95.778C88.1822 95.7777 88.1762 95.7794 88.1711 95.7827C88.1659 95.7861 88.1619 95.7909 88.1597 95.7966C87.0923 98.4562 84.7801 100.859 81.8519 101.183C77.1669 101.701 74.4357 98.1485 73.8431 93.9205C73.7712 93.4098 73.7353 92.6354 73.7353 91.5973C73.732 81.3476 73.7378 71.0978 73.7526 60.8481C73.7588 56.9864 75.032 52.7821 78.9781 51.2325C80.9989 50.439 83.2701 50.4689 85.4719 50.5872C91.5343 50.9136 93.2451 54.9721 93.3183 60.3586C93.3455 62.3633 93.3592 64.4453 93.3592 66.6046C93.3592 66.6383 93.3458 66.6706 93.3221 66.6944C93.2984 66.7182 93.2663 66.7316 93.2327 66.7316L86.1587 66.7391C86.1262 66.7391 86.095 66.7261 86.072 66.703C86.0489 66.6798 86.036 66.6485 86.036 66.6158C86.0401 64.5454 86.0385 62.4696 86.031 60.3885C86.0249 58.7242 85.0244 57.4747 83.2453 57.7986C81.4948 58.1175 81.3597 60.0446 81.3597 61.4685C81.3556 71.009 81.3523 80.5499 81.3498 90.0912C81.3485 91.7007 81.8977 93.6066 83.8355 93.5941C86.0472 93.5817 86.5629 91.966 86.5629 90.1136C86.5612 86.119 86.5637 82.1336 86.5703 78.1573C86.5703 78.1443 86.5678 78.1314 86.5628 78.1193C86.5578 78.1073 86.5504 78.0964 86.5412 78.0873C86.532 78.0781 86.521 78.0709 86.509 78.066C86.497 78.0611 86.4841 78.0587 86.4712 78.0589L83.3135 78.0751C83.2968 78.0752 83.2802 78.0721 83.2648 78.0658C83.2493 78.0594 83.2352 78.0501 83.2233 78.0383C83.2114 78.0265 83.202 78.0124 83.1956 77.9969C83.1892 77.9814 83.1858 77.9648 83.1858 77.948V70.5647C83.1858 70.5316 83.1989 70.5 83.2222 70.4766C83.2454 70.4532 83.2769 70.4401 83.3098 70.4401H93.5836C93.6125 70.4401 93.6402 70.4515 93.6607 70.4718C93.6812 70.4922 93.6927 70.5197 93.6927 70.5485V100.493C93.6927 100.534 93.672 100.555 93.6307 100.555H89.511C89.492 100.555 89.4736 100.549 89.4586 100.537C89.4436 100.526 89.4328 100.51 89.4279 100.492L88.213 95.7991Z" fill="white"/>
<path d="M145.406 85.4787C145.943 92.1656 145.263 100.845 136.358 101.072C134.8 101.112 133.214 101.136 131.678 100.832C126.748 99.8604 125.225 95.9302 125.213 91.3808C125.206 88.2001 125.205 85.0194 125.212 81.8387C125.213 81.798 125.233 81.7777 125.274 81.7777H132.584C132.601 81.7777 132.617 81.7843 132.629 81.7963C132.641 81.8082 132.648 81.8243 132.648 81.8412C132.648 84.811 132.648 87.7899 132.648 90.7779C132.648 92.6315 133.424 94.013 135.464 93.8287C136.982 93.6904 137.371 92.2902 137.467 90.9872C137.575 89.5056 137.576 88.0232 137.469 86.54C137.308 84.3164 136.273 82.5388 134.94 80.811C133.137 78.4724 131.329 76.1371 129.517 73.8051C127.027 70.6011 125.7 67.1156 125.638 63.0359C125.6 60.5246 125.491 58.6236 126.031 56.4885C127.502 50.6884 133.057 50.2076 137.979 50.6336C143.117 51.0783 144.75 54.3869 144.762 59.1692C144.769 61.8475 144.769 64.5258 144.764 67.2041C144.764 67.2203 144.757 67.2358 144.746 67.2472C144.734 67.2587 144.719 67.2651 144.703 67.2651H137.608C137.591 67.2651 137.574 67.2583 137.562 67.2461C137.55 67.234 137.543 67.2175 137.543 67.2003C137.545 64.9265 137.547 62.6435 137.548 60.3514C137.55 59.0584 137.429 57.4626 135.8 57.2583C134.016 57.0341 133.387 58.0531 133.286 59.6439C133.227 60.564 133.215 61.4854 133.249 62.4081C133.338 64.8111 134.416 66.7033 135.833 68.5544C137.848 71.1879 139.864 73.8221 141.879 76.4572C143.954 79.1716 145.124 81.9819 145.406 85.4787Z" fill="white"/>
<path d="M156.391 101.147C152.281 101.131 148.986 99.1723 147.935 95.0104C147.511 93.3299 147.406 91.9733 147.406 90.0549C147.401 80.1856 147.401 70.3162 147.405 60.4468C147.406 55.2921 149.696 51.033 155.333 50.6207C159.498 50.3155 164.375 50.4861 166.309 54.9657C167.101 56.8031 167.23 58.9495 167.235 60.9539C167.241 63.8589 167.241 66.763 167.236 69.6664C167.236 69.6825 167.23 69.6981 167.218 69.7095C167.207 69.721 167.191 69.7274 167.175 69.7274H159.925C159.911 69.7273 159.898 69.7226 159.887 69.7141C159.876 69.7055 159.868 69.6936 159.865 69.6801C159.791 69.3848 159.858 69.036 159.86 68.8255C159.865 66.261 159.865 63.6965 159.857 61.132C159.851 58.9744 159.088 57.2317 156.516 57.8682C155.413 58.141 155.061 59.3332 155.059 60.3297C155.057 70.459 155.056 80.5883 155.057 90.7176C155.057 92.139 155.508 93.6127 157.155 93.802C159.05 94.02 159.882 92.4018 159.851 90.7724C159.779 86.8983 159.868 82.9905 159.861 79.0391C159.861 79.0226 159.867 79.0067 159.879 78.995C159.891 78.9834 159.906 78.9768 159.923 78.9768H167.177C167.193 78.9768 167.209 78.9835 167.221 78.9954C167.233 79.0073 167.24 79.0235 167.24 79.0403C167.239 82.8821 167.236 86.733 167.232 90.5931C167.227 96.3134 164.983 101.119 158.469 101.147C157.775 101.15 157.083 101.15 156.391 101.147Z" fill="white"/>
<path d="M197.87 100.482C192.97 98.727 192.261 93.3443 192.258 88.8709C192.248 74.7063 192.248 65.6567 192.255 61.7219C192.264 57.2248 193.557 52.4326 198.391 51.0112C200.241 50.4669 202.355 50.4681 204.288 50.5914C211.455 51.0523 212.765 56.6207 212.769 62.6063C212.774 71.4675 212.774 80.3286 212.77 89.1898C212.768 95.1767 211.145 100.892 203.931 101.135C201.9 101.203 199.86 101.196 197.87 100.482ZM199.907 89.12C199.91 90.8952 199.853 93.7317 202.42 93.8239C204.629 93.9023 205.119 91.9503 205.119 90.1864C205.119 80.5138 205.114 70.8413 205.104 61.1688C205.102 59.8707 204.706 58.2389 203.292 57.8614C202.416 57.6272 201.649 57.7485 200.99 58.2252C199.811 59.076 199.913 60.9956 199.909 62.2588C199.885 71.2129 199.884 80.1667 199.907 89.12Z" fill="white"/>
<path d="M218.279 99.0069C215.548 96.564 215.129 92.6114 215.128 89.1907C215.125 79.9093 215.124 70.6283 215.127 61.3478C215.128 56.0709 217.237 51.2289 223.123 50.6546C225.414 50.4304 227.85 50.4229 229.992 51.1429C234.794 52.7573 235.608 57.7265 235.61 62.1238C235.613 71.3637 235.613 80.6036 235.611 89.8434C235.61 95.9761 233.356 101.117 226.345 101.148C223.386 101.161 220.629 101.11 218.279 99.0069ZM224.441 93.6229C225.641 94.1112 227.125 93.6939 227.611 92.3946C227.848 91.761 227.967 91.0767 227.967 90.3417C227.962 80.7323 227.958 71.1233 227.954 61.5147C227.954 60.5256 227.858 59.5975 227.43 58.8327C226.688 57.511 224.525 57.3976 223.548 58.4851C222.877 59.2338 222.753 60.5181 222.753 61.5346C222.749 71.1033 222.754 80.6721 222.771 90.2408C222.773 91.5812 223.039 93.0536 224.441 93.6229Z" fill="white"/>
<path d="M11.8941 100.532C7.94345 100.564 3.99652 100.569 0.053309 100.548C0.0391706 100.548 0.0256114 100.543 0.0156141 100.533C0.00561671 100.523 0 100.509 0 100.495V51.0712C0 51.0563 0.00587812 51.0421 0.0163405 51.0316C0.0268028 51.021 0.040992 51.0151 0.0557881 51.0151C4.1519 50.9935 8.25545 51.0006 12.3664 51.0363C13.1152 51.043 13.8996 51.1696 14.7195 51.4163C19.0759 52.7305 19.8619 56.581 19.8632 60.6071C19.8681 70.9125 19.869 81.2182 19.8656 91.5244C19.8656 91.938 19.8185 92.5301 19.7243 93.3008C19.1751 97.7779 16.4935 100.496 11.8941 100.532ZM12.1668 61.4168C12.1644 59.7588 11.9189 57.7756 9.7605 57.7706C8.6844 57.7681 7.94675 57.7656 7.54756 57.7631C7.49797 57.7631 7.47317 57.7881 7.47317 57.8379L7.46945 93.236C7.46945 93.285 7.49383 93.3104 7.5426 93.312C9.49395 93.3892 11.5829 93.6222 12.0305 91.2728C12.1296 90.7496 12.1792 90.221 12.1792 89.687C12.1817 80.2636 12.1776 70.8402 12.1668 61.4168Z" fill="white"/>
<path d="M22.4961 100.474V51.09C22.4961 51.0682 22.5047 51.0473 22.5201 51.0319C22.5354 51.0165 22.5562 51.0078 22.5779 51.0078H39.4607C39.4824 51.0078 39.5033 51.0165 39.5186 51.0319C39.5339 51.0473 39.5426 51.0682 39.5426 51.09V58.1196C39.5426 58.1414 39.5339 58.1623 39.5186 58.1777C39.5033 58.1931 39.4824 58.2018 39.4607 58.2018H30.0784C30.0676 58.2018 30.057 58.2039 30.0471 58.2081C30.0371 58.2122 30.0281 58.2182 30.0205 58.2259C30.0129 58.2335 30.0069 58.2426 30.0028 58.2525C29.9987 58.2625 29.9965 58.2732 29.9965 58.284V71.08C29.9965 71.0908 29.9987 71.1014 30.0028 71.1114C30.0069 71.1214 30.0129 71.1305 30.0205 71.1381C30.0281 71.1457 30.0371 71.1518 30.0471 71.1559C30.057 71.16 30.0676 71.1622 30.0784 71.1622L37.4152 71.1547C37.4369 71.1547 37.4577 71.1634 37.473 71.1788C37.4884 71.1942 37.497 71.2151 37.497 71.2369V78.6427C37.497 78.6645 37.4884 78.6854 37.473 78.7008C37.4577 78.7162 37.4369 78.7249 37.4152 78.7249H30.0784C30.0676 78.7249 30.057 78.727 30.0471 78.7311C30.0371 78.7353 30.0281 78.7413 30.0205 78.749C30.0129 78.7566 30.0069 78.7657 30.0028 78.7756C29.9987 78.7856 29.9965 78.7963 29.9965 78.8071V92.9372C29.9965 92.959 30.0052 92.9799 30.0205 92.9954C30.0358 93.0108 30.0567 93.0194 30.0784 93.0194H39.8637C39.8854 93.0194 39.9062 93.0281 39.9215 93.0435C39.9369 93.0589 39.9455 93.0798 39.9455 93.1016V100.474C39.9455 100.496 39.9369 100.516 39.9215 100.532C39.9062 100.547 39.8854 100.556 39.8637 100.556H22.5779C22.5562 100.556 22.5354 100.547 22.5201 100.532C22.5047 100.516 22.4961 100.496 22.4961 100.474Z" fill="white"/>
<path d="M71.0899 51.0117H63.7308C63.6918 51.0117 63.6602 51.0435 63.6602 51.0827V100.488C63.6602 100.527 63.6918 100.559 63.7308 100.559H71.0899C71.129 100.559 71.1606 100.527 71.1606 100.488V51.0827C71.1606 51.0435 71.129 51.0117 71.0899 51.0117Z" fill="white"/>
<path d="M109.434 77.1702V51.0726C109.434 51.0571 109.44 51.0422 109.451 51.0312C109.463 51.0202 109.478 51.014 109.493 51.014L116.192 51.0103C116.216 51.0103 116.239 51.02 116.257 51.0373C116.274 51.0546 116.284 51.078 116.284 51.1025V100.494C116.284 100.51 116.277 100.526 116.265 100.538C116.254 100.549 116.238 100.556 116.222 100.556H110.237C110.217 100.556 110.197 100.549 110.181 100.536C110.165 100.523 110.153 100.505 110.148 100.485L103.068 72.2871C103.065 72.2773 103.06 72.2689 103.051 72.2632C103.043 72.2575 103.033 72.2551 103.023 72.2563C103.013 72.2575 103.004 72.2623 102.998 72.2698C102.991 72.2773 102.987 72.287 102.987 72.297C102.988 72.3161 102.99 72.3336 102.994 72.3493C103.001 72.3771 103.007 72.4029 103.011 72.4235C103.016 72.4441 103.018 72.4586 103.018 72.4652V100.494C103.018 100.51 103.012 100.526 103 100.538C102.989 100.549 102.973 100.556 102.956 100.556H96.3857C96.3528 100.556 96.3213 100.543 96.298 100.519C96.2748 100.496 96.2617 100.464 96.2617 100.431V51.0701C96.2617 51.0536 96.2682 51.0377 96.2799 51.0261C96.2915 51.0144 96.3073 51.0078 96.3237 51.0078H102.99C103.002 51.0078 103.013 51.0119 103.022 51.0193C103.031 51.0268 103.038 51.0372 103.041 51.0489L109.362 77.179C109.363 77.1837 109.364 77.1883 109.366 77.1925C109.369 77.1966 109.372 77.2003 109.376 77.2032C109.379 77.2062 109.384 77.2084 109.388 77.2096C109.393 77.2109 109.398 77.2113 109.402 77.2107C109.407 77.2102 109.412 77.2087 109.416 77.2063C109.42 77.204 109.424 77.2008 109.427 77.1971C109.429 77.1933 109.432 77.189 109.433 77.1844C109.434 77.1798 109.435 77.175 109.434 77.1702Z" fill="white"/>
<path d="M177.099 78.8781L177.092 100.465C177.092 100.477 177.089 100.489 177.085 100.5C177.08 100.511 177.074 100.521 177.065 100.529C177.057 100.538 177.047 100.544 177.036 100.549C177.025 100.554 177.013 100.556 177.001 100.556H169.684C169.66 100.556 169.637 100.546 169.62 100.529C169.603 100.512 169.594 100.489 169.594 100.465V51.1012C169.594 51.0771 169.603 51.054 169.62 51.0369C169.637 51.0199 169.66 51.0103 169.684 51.0103L177.005 51.0165C177.029 51.0165 177.052 51.0261 177.069 51.0432C177.086 51.0602 177.095 51.0833 177.095 51.1075L177.093 70.7548C177.093 70.779 177.102 70.8021 177.119 70.8191C177.136 70.8362 177.159 70.8458 177.183 70.8458H182.087C182.111 70.8458 182.134 70.8362 182.151 70.8191C182.168 70.8021 182.177 70.779 182.177 70.7548V51.0988C182.177 51.0746 182.187 51.0515 182.204 51.0344C182.221 51.0174 182.244 51.0078 182.268 51.0078H189.618C189.642 51.0078 189.665 51.0174 189.682 51.0344C189.699 51.0515 189.709 51.0746 189.709 51.0988V100.465C189.709 100.489 189.699 100.512 189.682 100.529C189.665 100.546 189.642 100.556 189.618 100.556H182.268C182.244 100.556 182.221 100.546 182.204 100.529C182.187 100.512 182.177 100.489 182.177 100.465V78.8781C182.177 78.854 182.168 78.8309 182.151 78.8138C182.134 78.7968 182.111 78.7872 182.087 78.7872H177.19C177.166 78.7872 177.143 78.7968 177.126 78.8138C177.109 78.8309 177.099 78.854 177.099 78.8781Z" fill="white"/>
<path d="M245.772 92.8949H254.739C254.762 92.8949 254.785 92.9042 254.801 92.9208C254.818 92.9374 254.827 92.9599 254.827 92.9833V100.468C254.827 100.491 254.818 100.513 254.801 100.53C254.785 100.547 254.762 100.556 254.739 100.556H238.272C238.248 100.556 238.226 100.547 238.209 100.53C238.193 100.513 238.184 100.491 238.184 100.468V51.0963C238.184 51.0728 238.193 51.0503 238.209 51.0337C238.226 51.0171 238.248 51.0078 238.272 51.0078H245.596C245.619 51.0078 245.642 51.0171 245.658 51.0337C245.675 51.0503 245.684 51.0728 245.684 51.0963V92.8064C245.684 92.8299 245.693 92.8524 245.71 92.869C245.726 92.8855 245.749 92.8949 245.772 92.8949Z" fill="white"/>
</svg>
