<svg width="1800" height="80" viewBox="0 0 1800 80" fill="none" xmlns="http://www.w3.org/2000/svg">
<path d="M0.000956207 40C30.0853 45.5371 34.5647 50.0072 40.0845 80C45.6332 49.9784 50.1126 45.5083 80.168 40C50.0837 34.4629 45.6043 29.9928 40.0845 0C34.5358 30.0216 30.0564 34.4917 0.000956207 40Z" fill="white"/>
<path d="M132.274 40C162.359 45.5371 166.838 50.0072 172.358 80C177.907 49.9784 182.386 45.5083 212.441 40C182.357 34.4629 177.878 29.9928 172.358 0C166.809 30.0216 162.33 34.4917 132.274 40Z" fill="white"/>
<path d="M264.552 40C294.636 45.5371 299.115 50.0072 304.635 80C310.184 49.9784 314.663 45.5083 344.719 40C314.634 34.4629 310.155 29.9928 304.635 0C299.087 30.0216 294.607 34.4917 264.552 40Z" fill="white"/>
<path d="M396.825 40C426.909 45.5371 431.389 50.0072 436.909 80C442.457 49.9784 446.937 45.5083 476.992 40C446.908 34.4629 442.428 29.9928 436.909 0C431.36 30.0216 426.881 34.4917 396.825 40Z" fill="white"/>
<path d="M529.103 40C559.187 45.5371 563.666 50.0072 569.186 80C574.735 49.9784 579.214 45.5083 609.27 40C579.185 34.4629 574.706 29.9928 569.186 0C563.637 30.0216 559.158 34.4917 529.103 40Z" fill="white"/>
<path d="M661.376 40C691.46 45.5371 695.94 50.0072 701.459 80C707.008 49.9784 711.488 45.5083 741.543 40C711.459 34.4629 706.979 29.9928 701.459 0C695.911 30.0216 691.431 34.4917 661.376 40Z" fill="white"/>
<path d="M793.653 40C823.738 45.5371 828.217 50.0072 833.737 80C839.285 49.9784 843.765 45.5083 873.82 40C843.736 34.4629 839.257 29.9928 833.737 0C828.188 30.0216 823.709 34.4917 793.653 40Z" fill="white"/>
<path d="M925.821 40C955.906 45.5371 960.385 50.0072 965.905 80C971.453 49.9784 975.933 45.5083 1005.99 40C975.904 34.4629 971.425 29.9928 965.905 0C960.356 30.0216 955.877 34.4917 925.821 40Z" fill="white"/>
<path d="M1058.09 40C1088.18 45.5371 1092.66 50.0072 1098.18 80C1103.73 49.9784 1108.21 45.5083 1138.26 40C1108.18 34.4629 1103.7 29.9928 1098.18 0C1092.63 30.0216 1088.15 34.4917 1058.09 40Z" fill="white"/>
<path d="M1190.37 40C1220.46 45.5371 1224.94 50.0072 1230.46 80C1236 49.9784 1240.48 45.5083 1270.54 40C1240.45 34.4629 1235.98 29.9928 1230.46 0C1224.91 30.0216 1220.43 34.4917 1190.37 40Z" fill="white"/>
<path d="M1322.65 40C1352.73 45.5371 1357.21 50.0072 1362.73 80C1368.28 49.9784 1372.76 45.5083 1402.81 40C1372.73 34.4629 1368.25 29.9928 1362.73 0C1357.18 30.0216 1352.7 34.4917 1322.65 40Z" fill="white"/>
<path d="M1454.92 40C1485.01 45.5371 1489.49 50.0072 1495.01 80C1500.56 49.9784 1505.03 45.5083 1535.09 40C1505.01 34.4629 1500.53 29.9928 1495.01 0C1489.46 30.0216 1484.98 34.4917 1454.92 40Z" fill="white"/>
<path d="M1587.2 40C1617.28 45.5371 1621.76 50.0072 1627.28 80C1632.83 49.9784 1637.31 45.5083 1667.36 40C1637.28 34.4629 1632.8 29.9928 1627.28 0C1621.73 30.0216 1617.25 34.4917 1587.2 40Z" fill="white"/>
<path d="M1719.47 40C1749.56 45.5371 1754.04 50.0072 1759.56 80C1765.11 49.9784 1769.59 45.5083 1799.64 40C1769.56 34.4629 1765.08 29.9928 1759.56 0C1754.01 30.0216 1749.53 34.4917 1719.47 40Z" fill="white"/>
</svg>
