<svg width="977" height="596" viewBox="0 0 977 596" fill="none" xmlns="http://www.w3.org/2000/svg">
<mask id="mask0_916_3641" style="mask-type:alpha" maskUnits="userSpaceOnUse" x="0" y="0" width="977" height="596">
<rect width="977" height="596" fill="#D9D9D9"/>
</mask>
<g mask="url(#mask0_916_3641)">
<path d="M42.1838 721.133C62.2545 668.711 81.366 614.204 97.4967 560.39C127.423 460.018 148.402 356.899 159.735 252.894C161.382 239.066 163.539 218.583 164.485 204.843C165.743 191.065 167.337 170.344 167.824 156.651C168.29 148.806 169.349 128.172 169.39 120.423C169.644 100.415 170.154 79.9536 169.736 59.9593C167.076 -36.8524 157.772 -133.927 138.781 -228.939C130.35 -268.031 121.08 -307.633 103.111 -343.49C95.0411 -358.302 82.7516 -379.672 64.0598 -375.741C53.283 -372.854 44.6934 -364.823 37.1089 -356.448C26.6259 -344.603 17.9579 -331.073 10.2526 -317.205C-38.809 -224.38 -60.5119 -119.039 -70.0373 -15.0817C-81.5311 113.963 -64.29 244.834 -19.3078 366.39C8.48042 441.842 43.0142 516.33 93.5361 579.339C121.135 612.194 163.664 655.386 210.242 640.163C252.031 624.499 277.462 572.315 295.496 533.866C328.302 460.65 350.701 383.495 369.51 305.152C391.738 210.946 408.888 115.025 417.574 18.4789C420.106 -13.6026 422.201 -45.9979 420.413 -78.0892C419.833 -86.7813 417.505 -118.386 408.995 -114.672C402.766 -112.06 397.191 -105.526 392.74 -100.028C387.838 -93.8372 383.356 -87.1788 379.087 -80.3903C370.586 -66.7642 362.958 -52.5104 355.775 -38.0544C304.996 63.3704 277.796 176.058 278.04 289.572C277.993 386.4 292.25 484.673 329.046 574.619C343.729 608.964 371.957 666.221 411.066 674.824C443.761 680.776 470.558 641.419 486.135 617.232C511.165 576.32 530.358 532.251 549.137 488.001C573.745 428.416 595.539 367.517 615.287 306.044C629.907 259.82 643.484 213.105 653.213 165.562C656.311 149.751 659.255 133.76 660.06 117.884C660.142 113.167 660.57 108.037 658.592 104.18C658.646 104.171 658.751 104.223 658.677 104.193C657.474 104.321 656.016 105.329 654.873 106.162C648.818 110.932 643.787 117.432 639.124 123.653C629.646 136.6 621.389 150.544 613.876 164.833C550.988 280.102 561.021 422.243 614.117 539.257C630.533 573.691 652.403 613.229 685.051 634.135C697.898 642.076 713.301 644.952 725.887 635.375C777.221 596.646 815.456 415.273 837.188 347C841.764 331.402 846.463 315.797 851.954 300.407C857.172 287.139 861.724 272.067 872.318 261.908C875.747 258.488 882.547 257.185 886.556 260.684C891.978 265.175 893.428 272.199 895.072 278.393C900.103 302.392 901.571 326.876 905.953 350.857C923.999 453.133 961.442 533.733 1075.8 542.84C1107.43 545.664 1139.75 543.096 1171.91 538.712L1172.32 540.585C1125.44 554.481 1073.86 561.211 1025.39 548.828C953.424 530.614 914.746 470.828 903.36 400.839C897.495 368.533 896.508 335.789 893.476 303.323C888.687 245.691 872.934 255.661 856.957 302.162C828.525 376.397 796.612 629.672 718.969 649.43C671.192 660.008 625.653 577.911 609.624 541.297C576.955 466.78 561.822 384.023 569.098 302.846C575.052 237.905 598.543 174.68 635.236 120.809C640.304 114.289 653.316 94.6868 661.631 99.6272C674.471 107.61 654.969 197.796 652.034 215.024C632.493 310.95 607.184 405.658 570.346 496.708C551.793 542.255 530.035 587.293 500.444 627.051C476.95 658.169 436.19 702.542 394.209 676.6C360.667 655.097 339.627 612.137 324.679 576.419C277.706 454.802 266.188 321.168 280.694 192.209C292.59 95.2764 324.182 0.476835 372.868 -84.2016C399.208 -127.788 424.439 -145.741 429.246 -78.7338C433.534 -13.4711 427.557 51.8312 421.115 116.728C406.429 246.266 383.506 376.475 336.473 498.657C314.315 553.029 273.862 633.984 213.888 652.054C161.748 665.971 116.742 621.753 86.5809 584.998C36.0366 520.673 1.61948 445.3 -26.1766 368.873C-82.7671 215.632 -94.5022 47.8211 -65.3055 -112.605C-50.5442 -192.157 -22.0168 -300.084 30.0859 -362.658C50.2647 -385.782 75.238 -397.394 98.1299 -369.367C137.908 -318.768 157.211 -200.197 167.799 -135.179C182.09 -38.4649 190.279 59.5343 188.87 157.368C188.906 176.118 187.591 199.902 186.599 218.669C186.4 226.8 184.314 246.956 183.61 255.362C182.565 269.339 179.861 290.09 177.918 304.131C165.73 392.958 142.953 481.024 112.712 565.4C98.8545 603.07 82.9918 642.018 65.6767 678.218C59.1446 692.196 50.9632 708.369 43.9505 721.931L42.1994 721.144L42.1838 721.133Z" fill="white"/>
</g>
</svg>
