<svg width="2682" height="596" viewBox="0 0 2682 596" fill="none" xmlns="http://www.w3.org/2000/svg">
<mask id="mask0_962_3969" style="mask-type:alpha" maskUnits="userSpaceOnUse" x="0" y="0" width="2682" height="596">
<rect width="2682" height="596" fill="#0F3047"/>
</mask>
<g mask="url(#mask0_962_3969)">
<path d="M-36.989 227.412C-39.6143 179.112 -64.2962 140.958 -102.383 112.454C-124.918 95.7339 -142.5 94.4691 -130.753 128.34C-125.522 142.472 -117.406 155.599 -108.294 167.442C-95.9246 182.887 -81.3129 196.866 -63.8842 206.352C-50.815 213.902 -35.7242 221.376 -22.2431 210.357C-10.4387 200.229 -7.24808 183.73 -5.66714 168.975C-3.58796 149.007 -9.50932 128.895 -19.6561 111.792C-23.9773 104.913 -31.1539 91.7959 -39.3652 90.2724C-48.9754 89.9083 -48.8892 108.889 -48.9658 115.587C-48.8125 135.689 -45.1811 156.03 -36.6249 174.292C-30.282 187.774 -20.6717 200.469 -7.02771 207.09C1.9118 211.306 12.231 214.036 22.0712 211.746C26.8715 210.443 31.6719 208.402 35.3224 204.924C46.1686 193.963 48.9664 177.732 49.915 162.919C50.8731 147.838 48.6502 132.795 44.4535 118.327C43.0259 113.527 41.3779 108.765 39.1933 104.252C37.0471 100.017 34.4217 95.274 30.273 92.9265C25.3481 90.4928 22.579 96.9507 21.0173 100.601C17.4338 110.02 16.0924 120.272 15.0767 130.285C13.103 150.463 14.8468 170.833 19.0051 190.619C24.3516 215.196 33.5498 239.36 49.0335 259.395C67.7557 283.866 98.1385 300.088 129.278 298.804C141.073 298.363 152.734 295.057 163.293 289.845C173.526 284.681 178.815 278.28 167.825 269.465C155.867 260.411 139.943 256.894 125.139 257.134C108.103 257.335 90.0518 263.371 79.2247 276.977C64.4118 295.642 71.962 327.232 73.7824 349.518C76.6377 374.9 77.3468 401.565 67.4587 425.605C48.2382 471.903 -0.253616 501.145 -49.0329 506.319C-77.6719 509.146 -107.135 503.023 -132.488 489.513C-148.374 480.861 -162.602 468.674 -172.136 453.209C-190.043 424.532 -191.27 387.394 -178.507 356.398C-163.474 317.737 -123.395 293.141 -82.8363 290.382C-60.7702 288.848 -37.9759 294.003 -19.1387 305.578L-19.5699 306.43C-33.7121 300.691 -48.458 297.184 -63.6063 296.6C-105.008 294.799 -149.811 315.015 -170.919 351.588C-195.974 394.609 -188.74 451.877 -143.918 478.543C-115.576 495.368 -74.8837 501.816 -42.4121 497.274C0.235034 491.113 44.1948 468.147 63.8464 428.182C71.1475 413.388 74.1657 396.678 73.974 380.246C73.9166 359.684 69.03 339.812 66.4718 319.452C64.5459 303.911 64.4884 286.415 74.6735 273.413C84.7724 260.468 101.732 256.051 117.292 254.508C127.611 253.407 138.237 254.489 148.096 257.785C173.545 265.671 192.966 282.007 158.099 296.839C149.045 300.624 139.176 302.694 129.345 302.627C111.811 302.445 94.6509 296.696 79.4355 288.216C25.0511 257.843 3.83768 188.981 12.1736 129.94C12.8539 124.833 13.7162 119.764 14.7701 114.715C16.6002 107.232 18.1045 99.0586 23.1348 92.9073C30.3496 85.1559 38.2831 97.0465 41.7516 102.862C49.685 116.411 53.6805 131.99 54.1979 147.627C54.4375 163.178 51.9463 179.006 44.9614 192.967C41.4833 199.932 36.156 205.892 29.6597 210.165C18.1141 217.055 3.65563 214.381 -8.03377 209.198C-35.9733 196.359 -49.7132 159.911 -51.9648 130.984C-52.5301 120.646 -52.2235 110.116 -49.1574 100.141C-48.3718 97.6597 -47.4903 95.1877 -46.0339 92.9648C-40.4958 84.0061 -31.0868 92.3037 -26.1619 97.5448C-7.35349 117.158 1.9693 142.242 -3.13763 169.32C-6.05998 184.056 -10.2375 200.459 -21.7736 210.894C-34.929 222.468 -51.8594 217.419 -66.337 211.555C-81.2362 206.065 -94.3629 196.244 -104.673 184.257C-115.001 172.414 -122.877 158.55 -128.578 143.957C-132.344 133.974 -140.287 111.198 -133.331 102.345C-128.396 97.2286 -120.08 100.764 -114.532 102.891C-105.027 107.011 -96.2313 112.616 -88.0391 118.921C-79.8853 125.235 -72.3734 132.699 -66.1454 140.939C-53.4787 157.371 -45.7081 177.004 -40.9557 197C-38.6466 206.994 -37.0848 217.122 -36.0308 227.316L-36.989 227.393V227.412Z" fill="white"/>
<path d="M313.663 227.412C311.038 179.112 286.356 140.958 248.27 112.454C225.734 95.7339 208.152 94.4691 219.899 128.34C225.131 142.472 233.246 155.599 242.358 167.442C254.728 182.887 269.339 196.866 286.768 206.352C299.837 213.902 314.928 221.376 328.409 210.357C340.214 200.229 343.404 183.73 344.985 168.975C347.064 149.007 341.143 128.895 330.996 111.792C326.675 104.913 319.498 91.7959 311.287 90.2724C301.677 89.9083 301.763 108.889 301.687 115.587C301.84 135.689 305.471 156.03 314.027 174.292C320.37 187.774 329.981 200.469 343.625 207.09C352.564 211.306 362.883 214.036 372.724 211.746C377.524 210.443 382.324 208.402 385.975 204.924C396.821 193.963 399.619 177.732 400.567 162.919C401.525 147.838 399.303 132.795 395.106 118.327C393.678 113.527 392.03 108.765 389.846 104.252C387.699 100.017 385.074 95.274 380.925 92.9265C376 90.4928 373.231 96.9507 371.67 100.601C368.086 110.02 366.745 120.272 365.729 130.285C363.755 150.463 365.499 170.833 369.657 190.619C375.004 215.196 384.202 239.36 399.686 259.395C418.408 283.866 448.791 300.088 479.931 298.804C491.725 298.363 503.386 295.057 513.945 289.845C524.178 284.681 529.467 278.28 518.477 269.465C506.519 260.411 490.595 256.894 475.791 257.134C458.756 257.335 440.704 263.371 429.877 276.977C415.064 295.642 422.614 327.232 424.435 349.518C427.29 374.9 427.999 401.565 418.111 425.605C398.891 471.903 350.399 501.145 301.619 506.319C272.98 509.146 243.517 503.023 218.165 489.513C202.279 480.861 188.05 468.674 178.517 453.209C160.609 424.532 159.382 387.394 172.145 356.398C187.178 317.737 227.258 293.141 267.816 290.382C289.882 288.848 312.676 294.003 331.514 305.578L331.082 306.43C316.94 300.691 302.194 297.184 287.046 296.6C245.644 294.799 200.841 315.015 179.734 351.588C154.678 394.609 161.912 451.877 206.734 478.543C235.076 495.368 275.769 501.816 308.24 497.274C350.887 491.113 394.847 468.147 414.499 428.182C421.8 413.388 424.818 396.678 424.626 380.246C424.569 359.684 419.682 339.812 417.124 319.452C415.198 303.911 415.141 286.415 425.326 273.413C435.425 260.468 452.384 256.051 467.944 254.508C478.263 253.407 488.889 254.489 498.749 257.785C524.197 265.671 543.619 282.007 508.752 296.839C499.697 300.624 489.828 302.694 479.998 302.627C462.464 302.445 445.303 296.696 430.088 288.216C375.703 257.843 354.49 188.981 362.826 129.94C363.506 124.833 364.369 119.764 365.422 114.715C367.253 107.232 368.757 99.0586 373.787 92.9073C381.002 85.1559 388.935 97.0465 392.404 102.862C400.337 116.411 404.333 131.99 404.85 147.627C405.09 163.178 402.599 179.006 395.614 192.967C392.136 199.932 386.808 205.892 380.312 210.165C368.766 217.055 354.308 214.381 342.619 209.198C314.679 196.359 300.939 159.911 298.688 130.984C298.122 120.646 298.429 110.116 301.495 100.141C302.281 97.6597 303.162 95.1877 304.618 92.9648C310.157 84.0061 319.566 92.3037 324.49 97.5448C343.299 117.158 352.622 142.242 347.515 169.32C344.592 184.056 340.415 200.459 328.879 210.894C315.723 222.468 298.793 217.419 284.315 211.555C269.416 206.065 256.289 196.244 245.98 184.257C235.651 172.414 227.775 158.55 222.074 143.957C218.309 133.974 210.365 111.198 217.322 102.345C222.256 97.2286 230.573 100.764 236.12 102.891C245.625 107.011 254.421 112.616 262.613 118.921C270.767 125.235 278.279 132.699 284.507 140.939C297.174 157.371 304.944 177.004 309.697 197C312.006 206.994 313.568 217.122 314.622 227.316L313.663 227.393V227.412Z" fill="white"/>
<path d="M664.312 227.412C661.686 179.112 637.005 140.958 598.918 112.454C576.383 95.7339 558.801 94.4691 570.547 128.34C575.779 142.472 583.894 155.599 593.006 167.442C605.376 182.887 619.988 196.866 637.417 206.352C650.486 213.902 665.577 221.376 679.058 210.357C690.862 200.229 694.053 183.73 695.634 168.975C697.713 149.007 691.791 128.895 681.645 111.792C677.323 104.913 670.147 91.7959 661.936 90.2724C652.325 89.9083 652.412 108.889 652.335 115.587C652.488 135.689 656.12 156.03 664.676 174.292C671.019 187.774 680.629 200.469 694.273 207.09C703.213 211.306 713.532 214.036 723.372 211.746C728.172 210.443 732.973 208.402 736.623 204.924C747.469 193.963 750.267 177.732 751.216 162.919C752.174 147.838 749.951 132.795 745.754 118.327C744.327 113.527 742.679 108.765 740.494 104.252C738.348 100.017 735.723 95.274 731.574 92.9265C726.649 90.4928 723.88 96.9507 722.318 100.601C718.735 110.02 717.393 120.272 716.378 130.285C714.404 150.463 716.148 170.833 720.306 190.619C725.652 215.196 734.851 239.36 750.334 259.395C769.056 283.866 799.439 300.088 830.579 298.804C842.374 298.363 854.035 295.057 864.593 289.845C874.826 284.681 880.115 278.28 869.125 269.465C857.168 260.411 841.243 256.894 826.44 257.134C809.404 257.335 791.353 263.371 780.526 276.977C765.713 295.642 773.263 327.232 775.083 349.518C777.939 374.9 778.648 401.565 768.759 425.605C749.539 471.903 701.047 501.145 652.268 506.319C623.629 509.146 594.166 503.023 568.813 489.513C552.927 480.861 538.699 468.674 529.165 453.209C511.257 424.532 510.031 387.394 522.793 356.398C537.827 317.737 577.906 293.141 618.464 290.382C640.531 288.848 663.325 294.003 682.162 305.578L681.731 306.43C667.589 300.691 652.843 297.184 637.694 296.6C596.293 294.799 551.49 315.015 530.382 351.588C505.326 394.609 512.56 451.877 557.383 478.543C585.725 495.368 626.417 501.816 658.889 497.274C701.536 491.113 745.496 468.147 765.147 428.182C772.448 413.388 775.466 396.678 775.275 380.246C775.217 359.684 770.331 339.812 767.773 319.452C765.847 303.911 765.789 286.415 775.974 273.413C786.073 260.468 803.032 256.051 818.593 254.508C828.912 253.407 839.538 254.489 849.397 257.785C874.846 265.671 894.267 282.007 859.4 296.839C850.346 300.624 840.477 302.694 830.646 302.627C813.112 302.445 795.952 296.696 780.736 288.216C726.352 257.843 705.138 188.981 713.474 129.94C714.155 124.833 715.017 119.764 716.071 114.715C717.901 107.232 719.405 99.0586 724.436 92.9073C731.65 85.1559 739.584 97.0465 743.052 102.862C750.986 116.411 754.981 131.99 755.499 147.627C755.738 163.178 753.247 179.006 746.262 192.967C742.784 199.932 737.457 205.892 730.961 210.165C719.415 217.055 704.956 214.381 693.267 209.198C665.327 196.359 651.588 159.911 649.336 130.984C648.771 120.646 649.077 110.116 652.143 100.141C652.929 97.6597 653.811 95.1877 655.267 92.9648C660.805 84.0061 670.214 92.3037 675.139 97.5448C693.947 117.158 703.27 142.242 698.163 169.32C695.241 184.056 691.063 200.459 679.527 210.894C666.372 222.468 649.441 217.419 634.964 211.555C620.065 206.065 606.938 196.244 596.628 184.257C586.299 172.414 578.423 158.55 572.722 143.957C568.957 133.974 561.014 111.198 567.97 102.345C572.905 97.2286 581.221 100.764 586.769 102.891C596.274 107.011 605.07 112.616 613.262 118.921C621.416 125.235 628.927 132.699 635.155 140.939C647.822 157.371 655.593 177.004 660.345 197C662.654 206.994 664.216 217.122 665.27 227.316L664.312 227.393V227.412Z" fill="white"/>
<path d="M1014.96 227.412C1012.34 179.112 987.657 140.958 949.571 112.454C927.035 95.7339 909.453 94.4691 921.2 128.34C926.431 142.472 934.547 155.599 943.659 167.442C956.028 182.887 970.64 196.866 988.069 206.352C1001.14 213.902 1016.23 221.376 1029.71 210.357C1041.51 200.229 1044.71 183.73 1046.29 168.975C1048.37 149.007 1042.44 128.895 1032.3 111.792C1027.98 104.913 1020.8 91.7959 1012.59 90.2724C1002.98 89.9083 1003.06 108.889 1002.99 115.587C1003.14 135.689 1006.77 156.03 1015.33 174.292C1021.67 187.774 1031.28 200.469 1044.93 207.09C1053.86 211.306 1064.18 214.036 1074.02 211.746C1078.82 210.443 1083.62 208.402 1087.28 204.924C1098.12 193.963 1100.92 177.732 1101.87 162.919C1102.83 147.838 1100.6 132.795 1096.41 118.327C1094.98 113.527 1093.33 108.765 1091.15 104.252C1089 100.017 1086.37 95.274 1082.23 92.9265C1077.3 90.4928 1074.53 96.9507 1072.97 100.601C1069.39 110.02 1068.05 120.272 1067.03 130.285C1065.06 150.463 1066.8 170.833 1070.96 190.619C1076.3 215.196 1085.5 239.36 1100.99 259.395C1119.71 283.866 1150.09 300.088 1181.23 298.804C1193.03 298.363 1204.69 295.057 1215.25 289.845C1225.48 284.681 1230.77 278.28 1219.78 269.465C1207.82 260.411 1191.9 256.894 1177.09 257.134C1160.06 257.335 1142 263.371 1131.18 276.977C1116.36 295.642 1123.92 327.232 1125.74 349.518C1128.59 374.9 1129.3 401.565 1119.41 425.605C1100.19 471.903 1051.7 501.145 1002.92 506.319C974.281 509.146 944.818 503.023 919.466 489.513C903.579 480.861 889.351 468.674 879.817 453.209C861.91 424.532 860.683 387.394 873.446 356.398C888.479 317.737 928.558 293.141 969.117 290.382C991.183 288.848 1013.98 294.003 1032.81 305.578L1032.38 306.43C1018.24 300.691 1003.5 297.184 988.347 296.6C946.945 294.799 902.142 315.015 881.034 351.588C855.979 394.609 863.213 451.877 908.035 478.543C936.377 495.368 977.069 501.816 1009.54 497.274C1052.19 491.113 1096.15 468.147 1115.8 428.182C1123.1 413.388 1126.12 396.678 1125.93 380.246C1125.87 359.684 1120.98 339.812 1118.42 319.452C1116.5 303.911 1116.44 286.415 1126.63 273.413C1136.73 260.468 1153.68 256.051 1169.25 254.508C1179.56 253.407 1190.19 254.489 1200.05 257.785C1225.5 265.671 1244.92 282.007 1210.05 296.839C1201 300.624 1191.13 302.694 1181.3 302.627C1163.76 302.445 1146.6 296.696 1131.39 288.216C1077 257.843 1055.79 188.981 1064.13 129.94C1064.81 124.833 1065.67 119.764 1066.72 114.715C1068.55 107.232 1070.06 99.0586 1075.09 92.9073C1082.3 85.1559 1090.24 97.0465 1093.7 102.862C1101.64 116.411 1105.63 131.99 1106.15 147.627C1106.39 163.178 1103.9 179.006 1096.91 192.967C1093.44 199.932 1088.11 205.892 1081.61 210.165C1070.07 217.055 1055.61 214.381 1043.92 209.198C1015.98 196.359 1002.24 159.911 999.988 130.984C999.423 120.646 999.73 110.116 1002.8 100.141C1003.58 97.6597 1004.46 95.1877 1005.92 92.9648C1011.46 84.0061 1020.87 92.3037 1025.79 97.5448C1044.6 117.158 1053.92 142.242 1048.82 169.32C1045.89 184.056 1041.72 200.459 1030.18 210.894C1017.02 222.468 1000.09 217.419 985.616 211.555C970.717 206.065 957.59 196.244 947.281 184.257C936.952 172.414 929.076 158.55 923.375 143.957C919.609 133.974 911.666 111.198 918.622 102.345C923.557 97.2286 931.874 100.764 937.421 102.891C946.926 107.011 955.722 112.616 963.914 118.921C972.068 125.235 979.58 132.699 985.808 140.939C998.474 157.371 1006.24 177.004 1011 197C1013.31 206.994 1014.87 217.122 1015.92 227.316L1014.96 227.393V227.412Z" fill="white"/>
<path d="M1365.95 227.412C1363.32 179.112 1338.64 140.958 1300.55 112.454C1278.02 95.7339 1260.44 94.4691 1272.18 128.34C1277.42 142.472 1285.53 155.599 1294.64 167.442C1307.01 182.887 1321.62 196.866 1339.05 206.352C1352.12 213.902 1367.21 221.376 1380.69 210.357C1392.5 200.229 1395.69 183.73 1397.27 168.975C1399.35 149.007 1393.43 128.895 1383.28 111.792C1378.96 104.913 1371.78 91.7959 1363.57 90.2724C1353.96 89.9083 1354.05 108.889 1353.97 115.587C1354.12 135.689 1357.76 156.03 1366.31 174.292C1372.66 187.774 1382.27 200.469 1395.91 207.09C1404.85 211.306 1415.17 214.036 1425.01 211.746C1429.81 210.443 1434.61 208.402 1438.26 204.924C1449.11 193.963 1451.9 177.732 1452.85 162.919C1453.81 147.838 1451.59 132.795 1447.39 118.327C1445.96 113.527 1444.32 108.765 1442.13 104.252C1439.98 100.017 1437.36 95.274 1433.21 92.9265C1428.29 90.4928 1425.52 96.9507 1423.95 100.601C1420.37 110.02 1419.03 120.272 1418.01 130.285C1416.04 150.463 1417.78 170.833 1421.94 190.619C1427.29 215.196 1436.49 239.36 1451.97 259.395C1470.69 283.866 1501.08 300.088 1532.22 298.804C1544.01 298.363 1555.67 295.057 1566.23 289.845C1576.46 284.681 1581.75 278.28 1570.76 269.465C1558.8 260.411 1542.88 256.894 1528.08 257.134C1511.04 257.335 1492.99 263.371 1482.16 276.977C1467.35 295.642 1474.9 327.232 1476.72 349.518C1479.58 374.9 1480.28 401.565 1470.4 425.605C1451.18 471.903 1402.68 501.145 1353.9 506.319C1325.27 509.146 1295.8 503.023 1270.45 489.513C1254.56 480.861 1240.34 468.674 1230.8 453.209C1212.89 424.532 1211.67 387.394 1224.43 356.398C1239.46 317.737 1279.54 293.141 1320.1 290.382C1342.17 288.848 1364.96 294.003 1383.8 305.578L1383.37 306.43C1369.23 300.691 1354.48 297.184 1339.33 296.6C1297.93 294.799 1253.13 315.015 1232.02 351.588C1206.96 394.609 1214.2 451.877 1259.02 478.543C1287.36 495.368 1328.05 501.816 1360.53 497.274C1403.17 491.113 1447.13 468.147 1466.78 428.182C1474.09 413.388 1477.1 396.678 1476.91 380.246C1476.85 359.684 1471.97 339.812 1469.41 319.452C1467.48 303.911 1467.43 286.415 1477.61 273.413C1487.71 260.468 1504.67 256.051 1520.23 254.508C1530.55 253.407 1541.17 254.489 1551.03 257.785C1576.48 265.671 1595.9 282.007 1561.04 296.839C1551.98 300.624 1542.11 302.694 1532.28 302.627C1514.75 302.445 1497.59 296.696 1482.37 288.216C1427.99 257.843 1406.78 188.981 1415.11 129.94C1415.79 124.833 1416.65 119.764 1417.71 114.715C1419.54 107.232 1421.04 99.0586 1426.07 92.9073C1433.29 85.1559 1441.22 97.0465 1444.69 102.862C1452.62 116.411 1456.62 131.99 1457.14 147.627C1457.37 163.178 1454.88 179.006 1447.9 192.967C1444.42 199.932 1439.09 205.892 1432.6 210.165C1421.05 217.055 1406.59 214.381 1394.9 209.198C1366.96 196.359 1353.22 159.911 1350.97 130.984C1350.41 120.646 1350.71 110.116 1353.78 100.141C1354.57 97.6597 1355.45 95.1877 1356.9 92.9648C1362.44 84.0061 1371.85 92.3037 1376.78 97.5448C1395.58 117.158 1404.91 142.242 1399.8 169.32C1396.88 184.056 1392.7 200.459 1381.16 210.894C1368.01 222.468 1351.08 217.419 1336.6 211.555C1321.7 206.065 1308.57 196.244 1298.26 184.257C1287.94 172.414 1280.06 158.55 1274.36 143.957C1270.59 133.974 1262.65 111.198 1269.61 102.345C1274.54 97.2286 1282.86 100.764 1288.41 102.891C1297.91 107.011 1306.71 112.616 1314.9 118.921C1323.05 125.235 1330.56 132.699 1336.79 140.939C1349.46 157.371 1357.23 177.004 1361.98 197C1364.29 206.994 1365.85 217.122 1366.91 227.316L1365.95 227.393V227.412Z" fill="white"/>
<path d="M1716.6 227.412C1713.98 179.112 1689.29 140.958 1651.21 112.454C1628.67 95.7339 1611.09 94.4691 1622.84 128.34C1628.07 142.472 1636.18 155.599 1645.3 167.442C1657.67 182.887 1672.28 196.866 1689.71 206.352C1702.77 213.902 1717.87 221.376 1731.35 210.357C1743.15 200.229 1746.34 183.73 1747.92 168.975C1750 149.007 1744.08 128.895 1733.93 111.792C1729.61 104.913 1722.44 91.7959 1714.22 90.2724C1704.61 89.9083 1704.7 108.889 1704.62 115.587C1704.78 135.689 1708.41 156.03 1716.96 174.292C1723.31 187.774 1732.92 200.469 1746.56 207.09C1755.5 211.306 1765.82 214.036 1775.66 211.746C1780.46 210.443 1785.26 208.402 1788.91 204.924C1799.76 193.963 1802.56 177.732 1803.5 162.919C1804.46 147.838 1802.24 132.795 1798.04 118.327C1796.62 113.527 1794.97 108.765 1792.78 104.252C1790.64 100.017 1788.01 95.274 1783.86 92.9265C1778.94 90.4928 1776.17 96.9507 1774.61 100.601C1771.02 110.02 1769.68 120.272 1768.67 130.285C1766.69 150.463 1768.44 170.833 1772.59 190.619C1777.94 215.196 1787.14 239.36 1802.62 259.395C1821.35 283.866 1851.73 300.088 1882.87 298.804C1894.66 298.363 1906.32 295.057 1916.88 289.845C1927.12 284.681 1932.4 278.28 1921.41 269.465C1909.46 260.411 1893.53 256.894 1878.73 257.134C1861.69 257.335 1843.64 263.371 1832.81 276.977C1818 295.642 1825.55 327.232 1827.37 349.518C1830.23 374.9 1830.94 401.565 1821.05 425.605C1801.83 471.903 1753.34 501.145 1704.56 506.319C1675.92 509.146 1646.45 503.023 1621.1 489.513C1605.22 480.861 1590.99 468.674 1581.45 453.209C1563.55 424.532 1562.32 387.394 1575.08 356.398C1590.12 317.737 1630.2 293.141 1670.75 290.382C1692.82 288.848 1715.61 294.003 1734.45 305.578L1734.02 306.43C1719.88 300.691 1705.13 297.184 1689.98 296.6C1648.58 294.799 1603.78 315.015 1582.67 351.588C1557.62 394.609 1564.85 451.877 1609.67 478.543C1638.01 495.368 1678.71 501.816 1711.18 497.274C1753.82 491.113 1797.78 468.147 1817.44 428.182C1824.74 413.388 1827.76 396.678 1827.56 380.246C1827.51 359.684 1822.62 339.812 1820.06 319.452C1818.14 303.911 1818.08 286.415 1828.26 273.413C1838.36 260.468 1855.32 256.051 1870.88 254.508C1881.2 253.407 1891.83 254.489 1901.69 257.785C1927.13 265.671 1946.56 282.007 1911.69 296.839C1902.63 300.624 1892.77 302.694 1882.94 302.627C1865.4 302.445 1848.24 296.696 1833.03 288.216C1778.64 257.843 1757.43 188.981 1765.76 129.94C1766.44 124.833 1767.31 119.764 1768.36 114.715C1770.19 107.232 1771.69 99.0586 1776.72 92.9073C1783.94 85.1559 1791.87 97.0465 1795.34 102.862C1803.27 116.411 1807.27 131.99 1807.79 147.627C1808.03 163.178 1805.54 179.006 1798.55 192.967C1795.07 199.932 1789.75 205.892 1783.25 210.165C1771.7 217.055 1757.25 214.381 1745.56 209.198C1717.62 196.359 1703.88 159.911 1701.63 130.984C1701.06 120.646 1701.37 110.116 1704.43 100.141C1705.22 97.6597 1706.1 95.1877 1707.56 92.9648C1713.09 84.0061 1722.5 92.3037 1727.43 97.5448C1746.24 117.158 1755.56 142.242 1750.45 169.32C1747.53 184.056 1743.35 200.459 1731.82 210.894C1718.66 222.468 1701.73 217.419 1687.25 211.555C1672.35 206.065 1659.23 196.244 1648.92 184.257C1638.59 172.414 1630.71 158.55 1625.01 143.957C1621.25 133.974 1613.3 111.198 1620.26 102.345C1625.19 97.2286 1633.51 100.764 1639.06 102.891C1648.56 107.011 1657.36 112.616 1665.55 118.921C1673.7 125.235 1681.22 132.699 1687.44 140.939C1700.11 157.371 1707.88 177.004 1712.63 197C1714.94 206.994 1716.51 217.122 1717.56 227.316L1716.6 227.393V227.412Z" fill="white"/>
<path d="M2067.25 227.412C2064.62 179.112 2039.94 140.958 2001.86 112.454C1979.32 95.7339 1961.74 94.4691 1973.48 128.34C1978.72 142.472 1986.83 155.599 1995.94 167.442C2008.31 182.887 2022.93 196.866 2040.35 206.352C2053.42 213.902 2068.51 221.376 2082 210.357C2093.8 200.229 2096.99 183.73 2098.57 168.975C2100.65 149.007 2094.73 128.895 2084.58 111.792C2080.26 104.913 2073.08 91.7959 2064.87 90.2724C2055.26 89.9083 2055.35 108.889 2055.27 115.587C2055.43 135.689 2059.06 156.03 2067.61 174.292C2073.96 187.774 2083.57 200.469 2097.21 207.09C2106.15 211.306 2116.47 214.036 2126.31 211.746C2131.11 210.443 2135.91 208.402 2139.56 204.924C2150.41 193.963 2153.2 177.732 2154.15 162.919C2155.11 147.838 2152.89 132.795 2148.69 118.327C2147.26 113.527 2145.62 108.765 2143.43 104.252C2141.29 100.017 2138.66 95.274 2134.51 92.9265C2129.59 90.4928 2126.82 96.9507 2125.26 100.601C2121.67 110.02 2120.33 120.272 2119.32 130.285C2117.34 150.463 2119.09 170.833 2123.24 190.619C2128.59 215.196 2137.79 239.36 2153.27 259.395C2171.99 283.866 2202.38 300.088 2233.52 298.804C2245.31 298.363 2256.97 295.057 2267.53 289.845C2277.76 284.681 2283.05 278.28 2272.06 269.465C2260.11 260.411 2244.18 256.894 2229.38 257.134C2212.34 257.335 2194.29 263.371 2183.46 276.977C2168.65 295.642 2176.2 327.232 2178.02 349.518C2180.88 374.9 2181.59 401.565 2171.7 425.605C2152.48 471.903 2103.98 501.145 2055.21 506.319C2026.57 509.146 1997.1 503.023 1971.75 489.513C1955.86 480.861 1941.64 468.674 1932.1 453.209C1914.19 424.532 1912.97 387.394 1925.73 356.398C1940.76 317.737 1980.84 293.141 2021.4 290.382C2043.47 288.848 2066.26 294.003 2085.1 305.578L2084.67 306.43C2070.53 300.691 2055.78 297.184 2040.63 296.6C1999.23 294.799 1954.43 315.015 1933.32 351.588C1908.26 394.609 1915.5 451.877 1960.32 478.543C1988.66 495.368 2029.35 501.816 2061.83 497.274C2104.47 491.113 2148.43 468.147 2168.08 428.182C2175.39 413.388 2178.4 396.678 2178.21 380.246C2178.15 359.684 2173.27 339.812 2170.71 319.452C2168.78 303.911 2168.73 286.415 2178.91 273.413C2189.01 260.468 2205.97 256.051 2221.53 254.508C2231.85 253.407 2242.48 254.489 2252.33 257.785C2277.78 265.671 2297.2 282.007 2262.34 296.839C2253.28 300.624 2243.41 302.694 2233.58 302.627C2216.05 302.445 2198.89 296.696 2183.67 288.216C2129.29 257.843 2108.08 188.981 2116.41 129.94C2117.09 124.833 2117.95 119.764 2119.01 114.715C2120.84 107.232 2122.34 99.0586 2127.37 92.9073C2134.59 85.1559 2142.52 97.0465 2145.99 102.862C2153.92 116.411 2157.92 131.99 2158.44 147.627C2158.68 163.178 2156.18 179.006 2149.2 192.967C2145.72 199.932 2140.39 205.892 2133.9 210.165C2122.35 217.055 2107.89 214.381 2096.2 209.198C2068.26 196.359 2054.53 159.911 2052.27 130.984C2051.71 120.646 2052.01 110.116 2055.08 100.141C2055.87 97.6597 2056.75 95.1877 2058.2 92.9648C2063.74 84.0061 2073.15 92.3037 2078.08 97.5448C2096.88 117.158 2106.21 142.242 2101.1 169.32C2098.18 184.056 2094 200.459 2082.46 210.894C2069.31 222.468 2052.38 217.419 2037.9 211.555C2023 206.065 2009.88 196.244 1999.57 184.257C1989.24 172.414 1981.36 158.55 1975.66 143.957C1971.89 133.974 1963.95 111.198 1970.91 102.345C1975.84 97.2286 1984.16 100.764 1989.71 102.891C1999.21 107.011 2008.01 112.616 2016.2 118.921C2024.35 125.235 2031.86 132.699 2038.09 140.939C2050.76 157.371 2058.53 177.004 2063.28 197C2065.59 206.994 2067.15 217.122 2068.21 227.316L2067.25 227.393V227.412Z" fill="white"/>
<path d="M2417.9 227.412C2415.28 179.112 2390.59 140.958 2352.51 112.454C2329.97 95.7339 2312.39 94.4691 2324.14 128.34C2329.37 142.472 2337.48 155.599 2346.6 167.442C2358.97 182.887 2373.58 196.866 2391.01 206.352C2404.08 213.902 2419.17 221.376 2432.65 210.357C2444.45 200.229 2447.64 183.73 2449.22 168.975C2451.3 149.007 2445.38 128.895 2435.23 111.792C2430.91 104.913 2423.74 91.7959 2415.53 90.2724C2405.92 89.9083 2406 108.889 2405.92 115.587C2406.08 135.689 2409.71 156.03 2418.27 174.292C2424.61 187.774 2434.22 200.469 2447.86 207.09C2456.8 211.306 2467.12 214.036 2476.96 211.746C2481.76 210.443 2486.56 208.402 2490.21 204.924C2501.06 193.963 2503.86 177.732 2504.81 162.919C2505.76 147.838 2503.54 132.795 2499.34 118.327C2497.92 113.527 2496.27 108.765 2494.08 104.252C2491.94 100.017 2489.31 95.274 2485.16 92.9265C2480.24 90.4928 2477.47 96.9507 2475.91 100.601C2472.32 110.02 2470.98 120.272 2469.97 130.285C2467.99 150.463 2469.74 170.833 2473.9 190.619C2479.24 215.196 2488.44 239.36 2503.92 259.395C2522.65 283.866 2553.03 300.088 2584.17 298.804C2595.96 298.363 2607.62 295.057 2618.18 289.845C2628.42 284.681 2633.71 278.28 2622.72 269.465C2610.76 260.411 2594.83 256.894 2580.03 257.134C2562.99 257.335 2544.94 263.371 2534.12 276.977C2519.3 295.642 2526.85 327.232 2528.67 349.518C2531.53 374.9 2532.24 401.565 2522.35 425.605C2503.13 471.903 2454.64 501.145 2405.86 506.319C2377.22 509.146 2347.76 503.023 2322.4 489.513C2306.52 480.861 2292.29 468.674 2282.75 453.209C2264.85 424.532 2263.62 387.394 2276.38 356.398C2291.42 317.737 2331.5 293.141 2372.05 290.382C2394.12 288.848 2416.91 294.003 2435.75 305.578L2435.32 306.43C2421.18 300.691 2406.43 297.184 2391.28 296.6C2349.88 294.799 2305.08 315.015 2283.97 351.588C2258.92 394.609 2266.15 451.877 2310.97 478.543C2339.31 495.368 2380.01 501.816 2412.48 497.274C2455.13 491.113 2499.09 468.147 2518.74 428.182C2526.04 413.388 2529.06 396.678 2528.86 380.246C2528.81 359.684 2523.92 339.812 2521.36 319.452C2519.44 303.911 2519.38 286.415 2529.56 273.413C2539.66 260.468 2556.62 256.051 2572.18 254.508C2582.5 253.407 2593.13 254.489 2602.99 257.785C2628.44 265.671 2647.86 282.007 2612.99 296.839C2603.94 300.624 2594.07 302.694 2584.24 302.627C2566.7 302.445 2549.54 296.696 2534.33 288.216C2479.94 257.843 2458.73 188.981 2467.06 129.94C2467.74 124.833 2468.61 119.764 2469.66 114.715C2471.49 107.232 2473 99.0586 2478.03 92.9073C2485.24 85.1559 2493.17 97.0465 2496.64 102.862C2504.58 116.411 2508.57 131.99 2509.09 147.627C2509.33 163.178 2506.84 179.006 2499.85 192.967C2496.37 199.932 2491.05 205.892 2484.55 210.165C2473 217.055 2458.55 214.381 2446.86 209.198C2418.92 196.359 2405.18 159.911 2402.93 130.984C2402.36 120.646 2402.67 110.116 2405.73 100.141C2406.52 97.6597 2407.4 95.1877 2408.86 92.9648C2414.39 84.0061 2423.8 92.3037 2428.73 97.5448C2447.54 117.158 2456.86 142.242 2451.75 169.32C2448.83 184.056 2444.65 200.459 2433.12 210.894C2419.96 222.468 2403.03 217.419 2388.55 211.555C2373.65 206.065 2360.53 196.244 2350.22 184.257C2339.89 172.414 2332.01 158.55 2326.31 143.957C2322.55 133.974 2314.6 111.198 2321.56 102.345C2326.49 97.2286 2334.81 100.764 2340.36 102.891C2349.86 107.011 2358.66 112.616 2366.85 118.921C2375.01 125.235 2382.52 132.699 2388.75 140.939C2401.41 157.371 2409.18 177.004 2413.93 197C2416.24 206.994 2417.81 217.122 2418.86 227.316L2417.9 227.393V227.412Z" fill="white"/>
</g>
</svg>
