<svg width="2995" height="1192" viewBox="0 0 2995 1192" fill="none" xmlns="http://www.w3.org/2000/svg">
<mask id="mask0_940_3754" style="mask-type:alpha" maskUnits="userSpaceOnUse" x="0" y="0" width="2995" height="1192">
<rect x="0.666667" y="0.666667" width="2993.67" height="1190.67" fill="#274459" stroke="white" stroke-width="1.33333"/>
</mask>
<g mask="url(#mask0_940_3754)">
<path d="M1385.84 1874.81C1421.99 1737.77 1463.18 1597.87 1509.46 1463.79C1596.1 1213.95 1705.13 971.663 1835.23 741.782C1852.24 711.012 1878.02 665.85 1896.34 636.291C1914.07 606.199 1941.35 561.377 1960.54 532.593C1971.15 515.827 1999.41 471.973 2010.74 456.031C2039.72 414.648 2068.84 371.958 2099.18 331.593C2247.36 137.086 2409.55 -48.1657 2588.55 -214.907C2663.46 -282.601 2740.85 -350.102 2830.54 -397.105C2868.92 -415.568 2925.61 -441.25 2958.13 -405.634C2975.96 -383.828 2981.73 -354.705 2984.93 -326.358C2988.95 -286.623 2986.77 -246.113 2982.12 -206.33C2945.82 56.2593 2835 304.166 2701.26 531.285C2534.57 812.723 2306.28 1055.54 2034.88 1238.37C1866.68 1352.05 1686.08 1453.81 1489.64 1508.47C1384.63 1535.12 1233.78 1560.95 1160.76 1461.08C1098.2 1367.36 1123.01 1222.91 1142.73 1117.52C1183.44 919.087 1251.28 727.924 1328.23 539.619C1421.55 313.761 1527.82 91.8754 1652.36 -118.816C1694.46 -188.304 1737.93 -257.791 1788.91 -320.931C1802.91 -337.891 1854.28 -399.237 1866.25 -379.079C1875.16 -364.542 1876.95 -342.93 1877.97 -325.098C1878.89 -305.182 1878.26 -284.927 1877 -264.72C1874.34 -224.259 1868.96 -183.797 1862.37 -143.578C1816.92 139.17 1706.53 410.239 1538.68 642.542C1396.02 841.071 1221.91 1021.48 1013.88 1151.58C933.155 1200.33 790.885 1276.07 698.041 1236.04C622.254 1200.04 625.355 1079.87 629.087 1007.33C638.1 886.572 663.733 767.949 690.482 649.568C727.891 491.162 773.004 334.209 823.157 179.098C861.342 62.8012 902.385 -52.9629 952.538 -164.753C969.498 -201.726 987.039 -238.844 1008.8 -272.571C1015.58 -282.359 1022.27 -293.504 1032.01 -298.495C1031.91 -298.592 1031.62 -298.64 1031.81 -298.592C1034.09 -296.557 1035.59 -292.341 1036.71 -288.949C1042.09 -270.245 1042.81 -249.505 1043.2 -229.88C1043.54 -189.37 1039.91 -148.617 1034.24 -108.253C993.193 220.723 763.071 497.268 481.729 658.824C397.316 705.197 294.2 753.993 196.462 748.712C158.423 746.046 122.613 729.232 110.934 691.048C62.8166 535.985 251.848 107.866 307.961 -64.1081C321.577 -102.825 334.952 -141.736 346.388 -181.374C355.255 -216.263 368.145 -253.866 361.409 -290.306C359.423 -302.372 347.405 -315.067 334.031 -313.808C316.296 -312.596 302.97 -300.337 290.468 -290.064C244.773 -248.294 205.668 -200.273 161.33 -157.582C-26.4413 25.4406 -222.014 135.438 -469.824 -14.488C-538.827 -55.3374 -601.288 -108.253 -660.745 -164.657L-664.331 -161.41C-588.738 -63.8173 -492.938 26.0222 -375.332 72.1049C-200.984 140.866 -33.5646 75.3516 92.9569 -51.3153C152.608 -108.882 202.906 -174.542 256.984 -236.615C351.766 -347.679 369.356 -304.019 333.547 -185.154C282.376 8.9169 -25.6173 575.09 104.393 730.056C186.722 822.173 401.096 721.043 487.931 669.63C664.751 565.059 817.778 417.75 922.543 240.639C1006.08 98.7563 1051.15 -65.4647 1055.36 -229.977C1054.59 -250.813 1056.82 -310.173 1032.49 -312.305C994.405 -314.874 901.415 -101.275 882.033 -61.6368C780.66 163.786 692.905 395.217 634.175 636.146C605.052 756.852 583.246 881.242 585.281 1006.36C587.559 1104.77 605.682 1255.82 729.974 1264.54C830.426 1269.92 936.886 1212.88 1020.18 1161.71C1295.76 981.693 1516.38 724.774 1676.78 439.071C1795.3 222.855 1870.32 -18.0253 1895.37 -263.364C1905.64 -391.533 1880.39 -465.527 1771.75 -335.274C1666.75 -207.832 1582.72 -65.1741 1500.25 77.3383C1339.37 364.495 1194.39 665.172 1110.65 984.94C1075.91 1129.05 1039.47 1354.62 1135.75 1480.07C1222.1 1585.47 1379.54 1561.19 1495.55 1530.33C1693.98 1473 1875.65 1369.25 2045.29 1253.59C2387.21 1022.93 2658.66 696.281 2835.34 324.421C2922.37 139.606 3023.01 -123.662 3008.48 -328.732C3001.21 -405.876 2967.14 -466.496 2878.9 -442.8C2722.77 -397.735 2508.4 -183.167 2390.84 -65.5134C2218.96 111.646 2057.7 300.435 1916.35 503.034C1888.63 541.412 1856.26 592.098 1830.63 632.027C1819.05 648.987 1793.61 693.374 1782.66 711.642C1764.19 741.831 1739.14 788.35 1722.42 819.992C1616.45 1020.02 1533.3 1234.11 1470.88 1451.63C1443.75 1549.27 1418.84 1652.49 1400.96 1752.21C1393.74 1790.49 1386.67 1835.7 1381.04 1873.84L1385.79 1874.81H1385.84Z" fill="#C53A32"/>
</g>
</svg>
